<?xml version="1.0"?>
<mxfile host="Electron" modified="2022-06-09T17:40:48.096Z" agent="5.0 (X11; Linux x86_64) AppleWebKit/537.36 (KHTML, like Gecko) draw.io/18.1.3 Chrome/100.0.4896.143 Electron/18.2.3 Safari/537.36" etag="-7ivTc-Cc4Z56qBJLtC4" version="18.1.3">
  <diagram id="EjLPqHsa3jpSlwRIpOHd" name="Page-1">
    <mxGraphModel dx="2" dy="1" grid="1" gridSize="10" guides="1" tooltips="1" connect="1" arrows="1" fold="1" page="1" pageScale="1" pageWidth="850" pageHeight="1100" math="0" shadow="0">
      <root>
        <mxCell id="0"/>
        <mxCell id="1" parent="0"/>
        <mxCell id="q_Ejc5cEp-upuQ-JUQlb-1" value="" style="endArrow=none;html=1;rounded=0;strokeColor=none;" parent="1" edge="1">
          <mxGeometry width="50" height="50" relative="1" as="geometry">
            <mxPoint x="50" y="170" as="sourcePoint"/>
            <mxPoint x="220" y="50" as="targetPoint"/>
          </mxGeometry>
        </mxCell>
        <mxCell id="sze24is-KOGm4ZzRrVsH-1" value="" style="ellipse;whiteSpace=wrap;html=1;aspect=fixed;fillColor=#dae8fc;strokeColor=#6c8ebf;sketch=1;" parent="1" vertex="1">
          <mxGeometry x="60" y="60" width="100" height="100" as="geometry"/>
        </mxCell>
        <mxCell id="sze24is-KOGm4ZzRrVsH-2" value="" style="ellipse;whiteSpace=wrap;html=1;aspect=fixed;fillColor=#f8cecc;strokeColor=#b85450;sketch=1;rotation=90;" parent="1" vertex="1">
          <mxGeometry x="170" y="60" width="100" height="100" as="geometry"/>
        </mxCell>
        <mxCell id="sze24is-KOGm4ZzRrVsH-3" value="&lt;span style=&quot;&quot;&gt;&#x5BA2;&#x6237;&lt;br&gt;&#x6307;&#x4EE4;&#x96C6;&lt;/span&gt;" style="text;html=1;align=center;verticalAlign=middle;resizable=0;points=[];autosize=1;strokeColor=none;fillColor=none;" parent="1" vertex="1">
          <mxGeometry x="195" y="95" width="50" height="30" as="geometry"/>
        </mxCell>
        <mxCell id="sze24is-KOGm4ZzRrVsH-4" value="&lt;span style=&quot;&quot;&gt;&#x5BBF;&#x4E3B;&lt;br&gt;&#x6307;&#x4EE4;&#x96C6;&lt;/span&gt;" style="text;html=1;align=center;verticalAlign=middle;resizable=0;points=[];autosize=1;strokeColor=none;fillColor=none;" parent="1" vertex="1">
          <mxGeometry x="85" y="95" width="50" height="30" as="geometry"/>
        </mxCell>
        <mxCell id="q_Ejc5cEp-upuQ-JUQlb-2" value="+" style="text;html=1;align=center;verticalAlign=middle;resizable=0;points=[];autosize=1;strokeColor=none;fillColor=none;" parent="1" vertex="1">
          <mxGeometry x="155" y="100" width="20" height="20" as="geometry"/>
        </mxCell>
      </root>
    </mxGraphModel>
  </diagram>
</mxfile>
